<svg xmlns="http://www.w3.org/2000/svg" xmlns:xlink="http://www.w3.org/1999/xlink" width="424px" height="180px" viewBox="0 0 424 180" version="1.1" class="img-fluid">
                <!-- Generator: Sketch 63.1 (92452) - https://sketch.com -->
                <title>product-column-02</title>
                <desc>Created with Sketch.</desc>
                <g id="PPCP---Main" stroke="none" stroke-width="1" fill="none" fill-rule="evenodd">
                    <g id="01-Home---Desktop" transform="translate(-588.000000, -777.000000)">
                        <g id="Products" transform="translate(0.000000, 547.000000)">
                            <g id="Column-2" transform="translate(588.000000, 230.000000)">
                                <g id="Tile" transform="translate(0.000000, -0.000704)">
                                    <path d="M5,0.000704206328 L419,0.000704206328 C421.761424,0.000704206328 424,2.23928046 424,5.00070421 L424,130.000704 C424,157.614942 401.614237,180.000704 374,180.000704 L5,180.000704 C2.23857625,180.000704 3.38176876e-16,177.762128 0,175.000704 L0,5.00070421 C-3.38176876e-16,2.23928046 2.23857625,0.000704206328 5,0.000704206328 Z" id="Rectangle" fill="#00B188"/>
                                    <path d="M386.16542,28.9377759 L272.903041,111.227711 C250.562653,127.458953 219.29417,122.506512 203.062928,100.166124 L130.288,-7.10542736e-15 L405.433401,0.000368288257 C402.779414,11.2390982 396.240696,21.6176595 386.16542,28.9377759 Z" id="Combined-Shape" fill="#FFFFFF" opacity="0.07"/>
                                    <text>
                                    </text>

                                </g>
                            </g>
                        </g>
                    </g>
                </g>
            </svg>